<svg height="681pt" viewBox="-21 -42 681.3333 681" width="681pt" xmlns="http://www.w3.org/2000/svg"><path d="m636.539062 281.046875c-6.328124-20.375-25.617187-33.976563-46.941406-33.125l-4.546875.1875c-13.351562.546875-25.90625 6.046875-35.304687 15.449219l-70.316406 69.582031c-1.664063-2.542969-3.582032-4.964844-5.753907-7.21875-9.246093-9.605469-22.199219-15.113281-35.535156-15.113281h-99.195313c-18.71875 0-36.96875-2.425782-54.253906-7.207032-45.023437-12.457031-87.988281-3.460937-124.238281 26.015626-15.332031 12.46875-26.339844 26.078124-33.082031 35.679687-8.054688-6.363281-17.980469-9.707031-28.378906-9.578125-11.949219.203125-23.097657 5.054688-31.390626 13.660156l-64.113281 66.566406c-4.734375 4.917969-4.636719 12.726563.226563 17.523438l51.558594 50.851562c4.902343 4.835938 12.792968 4.78125 17.628906-.117187 4.835937-4.90625 4.78125-12.796875-.121094-17.628906l-42.792969-42.207031 55.570313-57.6875c3.660156-3.800782 8.578125-5.941407 13.851562-6.027344 5.324219-.082032 10.261719 1.886718 14.050782 5.554687l99.140624 96.214844c3.78125 3.667969 5.902344 8.589844 5.972657 13.859375.074219 5.265625-1.910157 10.242188-5.582031 14.015625l-54.597657 56.011719-11.460937-10.949219c-4.980469-4.757813-12.871094-4.578125-17.625.402344-4.757813 4.976562-4.578125 12.871093.402344 17.628906l20.386718 19.472656c2.417969 2.304688 5.515625 3.449219 8.609375 3.449219 3.246094 0 6.488281-1.253906 8.929688-3.765625l63.207031-64.84375c8.332031-8.546875 12.828125-19.835937 12.664062-31.769531-.066406-4.8125-.90625-9.496094-2.421874-13.921875l23.894531-2.777344c10.320312-1.203125 20.828125-1.8125 31.230469-1.8125h150.929687c2.308594 0 4.640625-.097656 6.960937-.289063l14.464844-1.207031c14.65625-1.21875 28.789063-6.308593 40.863282-14.703125 5.929687-4.128906 11.304687-9.007812 15.984374-14.511718l101.707032-119.660157c10.867187-12.78125 14.386718-29.980469 9.417968-46.003906zm-28.414062 29.859375-101.707031 119.65625c-3.285157 3.867188-7.058594 7.292969-11.226563 10.1875-8.476562 5.894531-18.398437 9.472656-28.695312 10.324219l-14.460938 1.210937c-1.628906.136719-3.269531.203125-4.886718.203125h-150.9375c-11.359376 0-22.839844.664063-34.113282 1.980469l-36.050781 4.191406-79.757813-76.90625c5.433594-8.046875 15.414063-21.019531 29.890626-32.789062 30.15625-24.519532 64.417968-31.695313 101.859374-21.335938 19.449219 5.382813 39.941407 8.109375 60.902344 8.109375h99.199219c6.59375 0 12.996094 2.730469 17.570313 7.476563 3.347656 3.476562 5.464843 7.730468 6.34375 12.195312-.015626 1.125.125 2.25.417968 3.339844.332032 5.84375-1.421875 11.800781-5.3125 16.648438l-.382812.484374c-4.65625 5.796876-11.59375 9.125-19.027344 9.125h-86.359375c-6.878906 0-12.464844 5.582032-12.464844 12.464844 0 6.882813 5.585938 12.46875 12.464844 12.46875h86.359375c15.035156 0 29.0625-6.726562 38.472656-18.457031l.386719-.488281c7.210937-8.980469 10.785156-19.847656 10.816406-30.695313l79.902344-79.0625c5.007813-5.011719 11.660156-7.925781 18.738281-8.21875l4.546875-.183593c10.078125-.414063 19.132813 6.007812 22.109375 15.605468 2.425782 7.824219.710938 16.222656-4.597656 22.464844zm0 0"/><path d="m99.128906 406.949219c-18.617187 0-33.765625 15.144531-33.765625 33.761719 0 18.617187 15.148438 33.757812 33.765625 33.757812 18.613282 0 33.753906-15.140625 33.753906-33.757812 0-18.617188-15.140624-33.761719-33.753906-33.761719zm0 42.585937c-4.871094 0-8.828125-3.957031-8.828125-8.824218 0-4.867188 3.957031-8.824219 8.828125-8.824219 4.867188 0 8.824219 3.957031 8.824219 8.824219 0 4.867187-3.957031 8.824218-8.824219 8.824218zm0 0"/><path d="m98.296875 519.609375-.640625.148437c-6.695312 1.585938-10.84375 8.304688-9.261719 15.007813 1.359375 5.734375 6.476563 9.59375 12.125 9.59375.953125 0 1.917969-.105469 2.882813-.335937l.640625-.152344c6.703125-1.585938 10.847656-8.300782 9.261719-15.003906-1.589844-6.699219-8.304688-10.835938-15.007813-9.257813zm0 0"/><path d="m189.929688 251.179688h335.195312c6.878906 0 12.464844-5.582032 12.464844-12.464844v-227.496094c0-6.886719-5.585938-12.464844-12.464844-12.464844h-335.195312c-6.882813 0-12.46875 5.578125-12.46875 12.464844v227.496094c0 6.882812 5.585937 12.464844 12.46875 12.464844zm12.46875-24.933594v-23.234375h310.261718v23.234375zm0-73.40625h310.261718v25.238281h-310.261718zm310.261718-129.15625v104.226562h-310.261718v-104.226562zm0 0"/><path d="m422.75 108.28125c7.25 0 13.929688-2.449219 19.28125-6.546875 5.34375 4.097656 12.027344 6.546875 19.273438 6.546875 17.503906 0 31.738281-14.242188 31.738281-31.742188 0-17.503906-14.234375-31.742187-31.738281-31.742187-7.246094 0-13.929688 2.445313-19.273438 6.546875-5.351562-4.101562-12.03125-6.546875-19.28125-6.546875-17.503906 0-31.738281 14.238281-31.738281 31.742187 0 17.5 14.234375 31.742188 31.738281 31.742188zm38.554688-38.550781c3.753906 0 6.808593 3.050781 6.808593 6.808593 0 3.753907-3.054687 6.808594-6.808593 6.808594-3.757813 0-6.808594-3.054687-6.808594-6.808594 0-3.757812 3.050781-6.808593 6.808594-6.808593zm-38.554688 0c3.757812 0 6.808594 3.050781 6.808594 6.808593 0 3.753907-3.050782 6.808594-6.808594 6.808594-3.75 0-6.804688-3.054687-6.804688-6.808594 0-3.757812 3.054688-6.808593 6.804688-6.808593zm0 0"/><path d="m236.789062 89.679688h43.238282c6.886718 0 12.472656-5.585938 12.472656-12.46875 0-6.882813-5.585938-12.46875-12.472656-12.46875h-43.238282c-6.886718 0-12.46875 5.585937-12.46875 12.46875 0 6.882812 5.582032 12.46875 12.46875 12.46875zm0 0"/><path d="m330.214844 89.742188c.9375 0 1.894531-.109376 2.847656-.332032l.546875-.125c6.699219-1.570312 10.863281-8.28125 9.292969-14.980468-1.570313-6.707032-8.277344-10.863282-14.980469-9.292969l-.546875.125c-6.699219 1.570312-10.859375 8.273437-9.292969 14.980469 1.347657 5.746093 6.46875 9.625 12.132813 9.625zm0 0"/></svg>